<?xml version="1.0" standalone="no"?><!DOCTYPE svg PUBLIC "-//W3C//DTD SVG 1.1//EN" "http://www.w3.org/Graphics/SVG/1.1/DTD/svg11.dtd"><svg t="1618986068572" class="icon" viewBox="0 0 1024 1024" version="1.1" xmlns="http://www.w3.org/2000/svg" p-id="7247" xmlns:xlink="http://www.w3.org/1999/xlink" width="200" height="200"><defs><style type="text/css"></style></defs><path d="M779.377778 631.466667c-39.822222 0-68.266667 34.133333-68.266667 68.266666 0 39.822222 34.133333 68.266667 68.266667 68.266667 39.822222 0 68.266667-34.133333 68.266666-73.955556-5.688889-34.133333-34.133333-62.577778-68.266666-62.577777z m0 102.4c-17.066667 0-34.133333-17.066667-34.133334-34.133334s17.066667-34.133333 34.133334-34.133333 34.133333 17.066667 34.133333 34.133333c0 22.755556-17.066667 34.133333-34.133333 34.133334z" p-id="7248"></path><path d="M961.422222 665.6c0-11.377778-11.377778-22.755556-22.755555-22.755556-22.755556 0-39.822222-17.066667-39.822223-39.822222 0-5.688889 0-11.377778 5.688889-17.066666 5.688889-11.377778 0-28.444444-11.377777-34.133334l-45.511112-28.444444c-11.377778-5.688889-22.755556 0-34.133333 5.688889-5.688889 5.688889-22.755556 17.066667-34.133333 17.066666-11.377778 0-28.444444-11.377778-34.133334-17.066666-11.377778-11.377778-22.755556-11.377778-34.133333-5.688889l-45.511111 28.444444c-11.377778 5.688889-17.066667 22.755556-11.377778 34.133334 0 0 5.688889 11.377778 5.688889 17.066666 0 22.755556-17.066667 39.822222-39.822222 39.822222-11.377778 0-22.755556 11.377778-22.755556 22.755556 0 0-5.688889 22.755556-5.688889 34.133333 0 17.066667 5.688889 34.133333 5.688889 34.133334 0 11.377778 11.377778 22.755556 22.755556 22.755555 22.755556 0 39.822222 17.066667 39.822222 39.822222 0 5.688889 0 11.377778-5.688889 17.066667-5.688889 11.377778 0 28.444444 11.377778 34.133333l45.511111 22.755556c11.377778 5.688889 22.755556 0 34.133333-5.688889 5.688889-5.688889 22.755556-17.066667 34.133334-17.066667 11.377778 0 28.444444 11.377778 34.133333 17.066667 11.377778 11.377778 22.755556 11.377778 34.133333 5.688889l45.511112-22.755556c11.377778-5.688889 17.066667-22.755556 11.377777-34.133333 0 0-5.688889-11.377778-5.688889-17.066667 0-22.755556 17.066667-39.822222 39.822223-39.822222 11.377778 0 22.755556-11.377778 22.755555-22.755555 0 0 5.688889-22.755556 5.688889-34.133334 0-11.377778-5.688889-34.133333-5.688889-34.133333z m-34.133333 62.577778c-39.822222 5.688889-68.266667 39.822222-68.266667 73.955555 0 11.377778 0 17.066667 5.688889 22.755556l-34.133333 17.066667c-5.688889-5.688889-11.377778-5.688889-11.377778-11.377778-17.066667-11.377778-28.444444-17.066667-39.822222-17.066667-11.377778 0-28.444444 5.688889-39.822222 17.066667-5.688889 5.688889-11.377778 5.688889-11.377778 11.377778l-34.133334-17.066667c0-5.688889 5.688889-17.066667 5.688889-22.755556 0-39.822222-28.444444-68.266667-68.266666-73.955555v-22.755556-22.755555c39.822222-5.688889 68.266667-39.822222 68.266666-73.955556 0-11.377778 0-17.066667-5.688889-22.755555l34.133334-17.066667 11.377778 11.377778c17.066667 11.377778 28.444444 17.066667 39.822222 17.066666 11.377778 0 28.444444-5.688889 39.822222-17.066666 5.688889-5.688889 11.377778-5.688889 11.377778-11.377778l34.133333 17.066667c0 5.688889-5.688889 17.066667-5.688889 22.755555 0 39.822222 28.444444 68.266667 68.266667 73.955556v22.755555c5.688889 5.688889 5.688889 11.377778 0 22.755556z" p-id="7249"></path><path d="M494.933333 802.133333v-56.888889h28.444445c0-11.377778-5.688889-28.444444-5.688889-39.822222H102.4s-5.688889 0-5.688889-5.688889v-62.577777h438.044445c5.688889-11.377778 11.377778-11.377778 22.755555-11.377778 22.755556 0 39.822222-11.377778 45.511111-34.133334H96.711111V187.733333s0-5.688889 5.688889-5.688889h745.244444s5.688889 0 5.688889 5.688889v278.755556h5.688889l34.133334 17.066667V187.733333c0-22.755556-22.755556-45.511111-45.511112-45.511111H102.4c-22.755556 0-45.511111 22.755556-45.511111 45.511111v506.311111c0 22.755556 22.755556 45.511111 45.511111 45.511112H455.111111v56.888888H301.511111c-11.377778 0-22.755556 11.377778-22.755555 22.755556s11.377778 22.755556 22.755555 22.755556h307.2v-11.377778c0-11.377778-5.688889-22.755556-11.377778-34.133334H494.933333z" p-id="7250"></path></svg>