<?xml version="1.0" standalone="no"?><!DOCTYPE svg PUBLIC "-//W3C//DTD SVG 1.1//EN" "http://www.w3.org/Graphics/SVG/1.1/DTD/svg11.dtd"><svg t="1606186757345" class="icon" viewBox="0 0 1024 1024" version="1.1" xmlns="http://www.w3.org/2000/svg" p-id="2369" xmlns:xlink="http://www.w3.org/1999/xlink" width="200" height="200"><defs><style type="text/css"></style></defs><path d="M334.222222 557.511111h-55.466666c-8.533333 0-14.222222-7.111111-14.222223-14.222222v-82.488889c0-8.533333 7.111111-14.222222 14.222223-14.222222h55.466666c8.533333 0 14.222222 7.111111 14.222222 14.222222v82.488889c0 7.111111-7.111111 14.222222-14.222222 14.222222zM470.755556 557.511111h-55.466667c-8.533333 0-14.222222-7.111111-14.222222-14.222222V194.844444c0-8.533333 7.111111-14.222222 14.222222-14.222222h55.466667c8.533333 0 14.222222 7.111111 14.222222 14.222222v348.444445c0 7.111111-5.688889 14.222222-14.222222 14.222222zM608.711111 557.511111h-55.466667c-8.533333 0-14.222222-7.111111-14.222222-14.222222v-156.444445c0-8.533333 7.111111-14.222222 14.222222-14.222222h55.466667c8.533333 0 14.222222 7.111111 14.222222 14.222222v156.444445c0 7.111111-7.111111 14.222222-14.222222 14.222222zM745.244444 557.511111h-55.466666c-8.533333 0-14.222222-7.111111-14.222222-14.222222V265.955556c0-8.533333 7.111111-14.222222 14.222222-14.222223h55.466666c8.533333 0 14.222222 7.111111 14.222223 14.222223v275.911111c0 8.533333-5.688889 15.644444-14.222223 15.644444z" p-id="2370"></path><path d="M920.177778 706.844444H103.822222c-17.066667 0-29.866667-14.222222-29.866666-29.866666v-640c0-17.066667 14.222222-29.866667 29.866666-29.866667h816.355556c17.066667 0 29.866667 14.222222 29.866666 29.866667v638.577778c0 17.066667-12.8 31.288889-29.866666 31.288888zM133.688889 645.688889h755.2V68.266667H133.688889v577.422222zM923.022222 776.533333H100.977778c-12.8 0-24.177778 8.533333-28.444445 19.911111L8.533333 977.066667c-7.111111 19.911111 7.111111 41.244444 28.444445 41.244444h948.622222c21.333333 0 35.555556-21.333333 28.444444-41.244444L951.466667 796.444444c-4.266667-11.377778-15.644444-19.911111-28.444445-19.911111z" p-id="2371"></path></svg>