<?xml version="1.0" standalone="no"?><!DOCTYPE svg PUBLIC "-//W3C//DTD SVG 1.1//EN" "http://www.w3.org/Graphics/SVG/1.1/DTD/svg11.dtd"><svg t="1617775591703" class="icon" viewBox="0 0 1024 1024" version="1.1" xmlns="http://www.w3.org/2000/svg" p-id="1101" xmlns:xlink="http://www.w3.org/1999/xlink" width="200" height="200"><defs><style type="text/css"></style></defs><path d="M314.45 803.11a332.342 332.342 0 0 1-64.3-67.84h-36.78C148.58 735.2 96.07 682.69 96 617.9V406.14c0.09-64.78 52.6-117.26 117.38-117.33h36.22a311.01 311.01 0 0 1 61.99-67.75 369.962 369.962 0 0 1 243.07-82.39c17.66 0.02 31.98 14.34 32 32v682.67c-0.02 17.68-14.36 32-32.04 32a370.426 370.426 0 0 1-240.17-82.23zM160 406.14v211.8c0.05 29.45 23.92 53.31 53.38 53.33h54.49c11.68 0.01 22.44 6.37 28.07 16.6 4.02 6.7 8.5 13.11 13.4 19.2 13.4 17.13 28.7 32.69 45.61 46.38a302.548 302.548 0 0 0 167.72 66.56V203.9a298.65 298.65 0 0 0-170.28 66.43 263.362 263.362 0 0 0-43.69 45.95c-4.5 5.91-8.56 12.14-12.16 18.65a31.913 31.913 0 0 1-28.59 17.62h-54.57c-29.53 0.05-53.43 24.03-53.38 53.55v0.04z m576 460.38c-12.43-12.5-12.43-32.69 0-45.18 170.84-170.71 170.95-447.58 0.24-618.42l-0.24-0.24c-13.26-11.68-14.55-31.9-2.87-45.16 11.68-13.26 31.9-14.55 45.16-2.87 1.02 0.9 1.99 1.86 2.89 2.89 195.78 195.75 195.81 513.15 0.06 708.93l-0.06 0.06c-12.51 12.48-32.76 12.48-45.27 0h0.09z m-78.08-120.71c-12.49-12.47-12.5-32.71-0.03-45.19l0.03-0.03c104.14-104.14 104.14-272.98 0.01-377.12l-0.01-0.01c-12.72-12.27-13.08-32.53-0.81-45.25 12.27-12.72 32.53-13.08 45.25-0.81 0.27 0.26 0.53 0.52 0.79 0.79 129.13 129.13 129.13 338.49 0 467.63-12.47 12.49-32.71 12.5-45.19 0.03l-0.04-0.04z" p-id="1102"></path></svg>