<?xml version="1.0" standalone="no"?><!DOCTYPE svg PUBLIC "-//W3C//DTD SVG 1.1//EN" "http://www.w3.org/Graphics/SVG/1.1/DTD/svg11.dtd"><svg t="1618985883627" class="icon" viewBox="0 0 1024 1024" version="1.1" xmlns="http://www.w3.org/2000/svg" p-id="6125" xmlns:xlink="http://www.w3.org/1999/xlink" width="200" height="200"><defs><style type="text/css"></style></defs><path d="M938.453333 128A43.221333 43.221333 0 0 1 981.333333 171.349333v628.608c0 23.893333-19.2 43.306667-42.88 43.349334h-403.114666l-10.24-39.210667h376.533333a38.997333 38.997333 0 0 0 39.466667-38.528V206.976a38.997333 38.997333 0 0 0-39.466667-38.528H403.925333a38.997333 38.997333 0 0 0-39.424 38.528v208c-8.533333-7.509333-31.445333-13.226667-40.234666-17.578667V171.349333C324.309333 147.413333 343.466667 128 367.189333 128h571.264z m-108.629333 143.061333H887.466667v409.856h-57.6V271.061333zM739.114667 418.986667h57.6v261.845333h-57.6V419.029333z m-81.365334-54.912h57.6v316.8h-57.6V364.117333z m-85.76 117.888h57.685334v198.912h-57.642667v-198.912z m-81.322666 42.538666h57.6v156.330667H490.666667v-156.330667z m-221.866667 116.821334c-37.034667 0-85.333333-51.2-85.333333-114.346667 0-63.146667 17.621333-114.346667 85.333333-114.346667s85.333333 51.2 85.333333 114.346667c0 63.146667-48.341333 114.346667-85.333333 114.346667z m-29.994667 111.445333l25.770667-90.581333h14.72l27.050667 90.581333-34.432 90.453333-33.109334-90.453333z m130.048-100.266667C434.645333 671.488 512 714.069333 512 809.813333V938.666667H42.666667v-128.853334c0-95.744 77.354667-138.325333 143.189333-157.269333L277.333333 904.405333l91.52-251.861333z" p-id="6126"></path></svg>