<?xml version="1.0" standalone="no"?><!DOCTYPE svg PUBLIC "-//W3C//DTD SVG 1.1//EN" "http://www.w3.org/Graphics/SVG/1.1/DTD/svg11.dtd"><svg t="1618987627978" class="icon" viewBox="0 0 1024 1024" version="1.1" xmlns="http://www.w3.org/2000/svg" p-id="8637" xmlns:xlink="http://www.w3.org/1999/xlink" width="200" height="200"><defs><style type="text/css"></style></defs><path d="M890.6 512h-13.98V125.24c0-50.52-43.02-93.24-93.9-93.24h-461.4c-51 0-93.96 42.72-93.96 93.24v10.2h-12.12c-50.94 0-93.96 42.6-93.96 93.18v284.04C71.36 518.6 32 561.8 32 612.62v278.76C32 947.78 76.52 992 133.4 992h757.2c56.88 0 101.4-44.22 101.4-100.62V612.62C992 556.22 947.48 512 890.6 512zM782.72 85.52c21.3 0 39.96 18.6 39.96 39.72v70.38L711.8 85.52h70.98z m-108.84 37.62l110.94 110.1h-70.98a40.92 40.92 0 0 1-39.96-39.72V123.2z m-394.44 10.38c0-38.22 20.58-48 41.88-48h298.56v108c0 50.58 43.02 93.24 93.96 93.24h108.84V512H667.4a28.14 28.14 0 0 0-26.82 23.28l-0.06 0.6a136.2 136.2 0 0 1-269.88 0l-0.12-0.6A28.2 28.2 0 0 0 343.64 512h-64.2V133.52z m-106.08 96.96c0-21.18 18.72-39.72 40.02-39.72h12.12V512h-52.14V230.48z m764.7 660.9a46.2 46.2 0 0 1-47.46 47.1H133.4a46.2 46.2 0 0 1-47.4-47.1V612.62a46.2 46.2 0 0 1 47.4-47.1h190.62c22.08 82.8 98.1 142.2 183.3 142.2 87.12 0 163.2-59.4 183.48-142.2h199.8c27 0 47.4 20.28 47.4 47.1v278.76z" fill="#8A8A8A" p-id="8638"></path><path d="M384 192h154.048v52.032H384V192z m0 139.968h256V384H384v-52.032z" fill="#8A8A8A" p-id="8639"></path></svg>