<?xml version="1.0" standalone="no"?><!DOCTYPE svg PUBLIC "-//W3C//DTD SVG 1.1//EN" "http://www.w3.org/Graphics/SVG/1.1/DTD/svg11.dtd"><svg t="1606187316658" class="icon" viewBox="0 0 1024 1024" version="1.1" xmlns="http://www.w3.org/2000/svg" p-id="4755" xmlns:xlink="http://www.w3.org/1999/xlink" width="200" height="200"><defs><style type="text/css"></style></defs><path d="M917.647922 367.283144h-204.75665c-15.389261 0-27.780145-12.390884-27.780145-27.780145 0-15.389261 12.390884-27.780145 27.780145-27.780146h204.75665c15.389261 0 27.780145 12.390884 27.780145 27.780146 0 15.389261-12.390884 27.780145-27.780145 27.780145zM917.647922 244.458054h-204.75665c-15.389261 0-27.780145-12.390884-27.780145-27.780145 0-15.389261 12.390884-27.780145 27.780145-27.780146h204.75665c15.389261 0 27.780145 12.390884 27.780145 27.780146 0 15.389261-12.390884 27.780145-27.780145 27.780145z" fill="#C9C9C9" p-id="4756"></path><path d="M920.501799 439.930572c-3.937628-0.469625-459.979962-0.722501-573.268045-0.7225v-70.949552H355.10901c53.537289 0 107.074578-0.108375 160.647993 0 18.965639 0 33.885275-7.622381 43.422282-23.625768 4.190503-6.89988 7.152755-15.606011 7.26113-23.625767 0.469625-82.870811 0.36125-165.633246 0.252875-248.540182 0-22.433641-20.41064-44.614408-39.954279-45.806533-0.469625 0-0.939251-0.830876-1.445001-1.300501H69.612926c-8.597756 4.515628-17.990263 8.092006-25.504269 13.94426-9.175757 7.152755-13.94426 17.665138-14.558385 29.694772 0 0.722501-0.830876 1.445001-1.300501 2.131376v251.394059c3.215127 8.236506 5.382629 17.159388 9.898257 24.673393 8.453256 14.197135 22.433641 20.735765 38.400903 20.880266 62.135046 0.469625 124.270091 0.252875 186.405137 0.252875H272.021449v71.419177H129.616595c-29.080646 0-54.25979 9.898257-74.164679 30.995273-15.389261 16.220137-26.94927 36.594652-26.94927 58.305792 0 1.192126-0.108375 286.435335-0.108375 427.756439 0 8.236506 2.384252 17.303888 6.791505 25.179143 6.430255 11.560008 21.349891 18.134763 33.99365 18.857264 26.696395 1.553376 90.023566 1.806251 116.756085 1.445001 8.706131-0.108375 18.134763-2.637127 26.010019-6.574755 16.942637-8.453256 25.395894-23.625767 25.504269-42.230156 0.36125-97.537571 0.36125-158.733366 0-256.270937-0.108375-23.734142 21.241516-48.552036 47.93791-48.407536 122.60834 0.614125 208.694278 0.36125 331.302618 0.252875 24.673393 0 45.806534 22.180766 45.806533 45.662034 0.108375 98.043322 0 159.672617 0.108375 257.715939 0 21.458266 13.113385 41.39928 34.824526 47.359909 5.599379 1.553376 11.451633 2.637127 17.159387 2.637127 79.800183 0.108375 159.455867 0 239.219926 0.252875 23.625767 0 46.854159-16.220137 50.430537-39.231778 0-0.36125 0.722501-0.469625 1.08375-0.722501V527.786637c0-10.006632-3.576378-25.504269-7.983631-34.102025-15.895012-30.850773-40.098779-54.223665-76.837931-53.75404zM105.412827 318.405983c-16.111762 0-25.757144-9.645382-25.757144-25.757144 0-63.796797 0.36125-127.593593-0.252875-191.282015-0.108375-15.606011 11.704509-25.865519 25.865519-25.865519 64.049672 0.108375 127.954844 0.108375 192.004516 0.108375h192.004515c16.581387 0 27.418895 10.729133 27.418895 27.202145v188.428138c0 16.328512-10.837508 27.202145-27.31052 27.202145-127.954844-0.036125-255.909687-0.036125-383.972906-0.036125z m850.419248 221.807663v399.506667c0 7.514006-6.069004 13.474635-13.474635 13.474635H726.113032c-7.514006 0-13.474635-6.069004-13.474635-13.474635v-244.963804c0-48.877161-20.04939-88.61469-76.440556-88.61469H280.330205c-47.829535 0-86.952939 39.123404-86.952938 86.952939v246.625555c0 7.514006-6.069004 13.474635-13.474635 13.474635H90.854442c-7.514006 0-13.474635-6.069004-13.474635-13.474635V540.213646c0-28.755521 19.543639-52.128413 48.29916-52.236789H906.051789c27.563395 0 49.960912 22.289141 49.960911 49.960912v2.275877h-0.180625z" fill="#C9C9C9" p-id="4757"></path></svg>