<?xml version="1.0" standalone="no"?><!DOCTYPE svg PUBLIC "-//W3C//DTD SVG 1.1//EN" "http://www.w3.org/Graphics/SVG/1.1/DTD/svg11.dtd"><svg t="1620458234977" class="icon" viewBox="0 0 1024 1024" version="1.1" xmlns="http://www.w3.org/2000/svg" p-id="2632" xmlns:xlink="http://www.w3.org/1999/xlink" width="200" height="200"><defs><style type="text/css"></style></defs><path d="M803.25 211.036c0 18.846-19.77 34.122-44.16 34.122-24.386 0-44.156-15.276-44.156-34.122V58.493c0-18.845 19.77-34.123 44.156-34.123 24.39 0 44.16 15.278 44.16 34.123v152.544z m-487.364 0c0 18.846-19.77 34.122-44.16 34.122-24.385 0-44.156-15.276-44.156-34.122V58.493c0-18.845 19.77-34.123 44.157-34.123 24.39 0 44.16 15.278 44.16 34.123v152.544z" p-id="2633"></path><path d="M821.325 101.461v49.877c13.002 14.544 20.916 33.733 20.916 54.777 0 45.421-36.821 82.242-82.243 82.242s-82.243-36.821-82.243-82.242c0-21.045 7.914-40.234 20.917-54.78v-49.874H333.958v53.308c11.27 14.073 18.026 31.915 18.026 51.345 0 45.42-36.821 82.242-82.243 82.242s-82.242-36.821-82.242-82.242c0-22.558 9.097-42.978 23.806-57.839V101.46H34.112v866.247h953.97V101.46H821.324z m80.862 782.183H121.835V339.04h780.352v544.603z" p-id="2634"></path><path d="M609.113 475.05v61.708L506.265 806.034h-71.06l106.588-276.756H394.065v-54.23h215.048z" p-id="2635"></path></svg>